<svg xmlns="http://www.w3.org/2000/svg" class="size-28" viewBox="0 0 600 600"><defs><linearGradient id="b" x1="0%" x2="100%" y1="0%" y2="100%"><stop offset="0%" style="stop-color:#d4d4d4;stop-opacity:1"/><stop offset="40%" style="stop-color:#f5f5f5;stop-opacity:1"/><stop offset="100%" style="stop-color:#b0b0b0;stop-opacity:1"/></linearGradient><filter id="a"><feGaussianBlur in="SourceAlpha" stdDeviation="4"/><feOffset dx="8" dy="8" result="offsetblur"/><feMerge><feMergeNode/><feMergeNode in="SourceGraphic"/></feMerge></filter></defs><g transform="translate(300 300)"><ellipse cx="20" cy="180" fill="#00000020" rx="50" ry="15" transform="skewX(-30) scale(1 .6)"/><g filter="url(#a)" transform="matrix(.80648 .56569 -.60773 .56569 -1.3 -248.902)"><path fill="#c00" d="M32 32C32 14.3 46.3 0 64 0h256c17.7 0 32 14.3 32 32s-14.3 32-32 32h-29.5l11.4 148.2c36.7 19.9 65.7 53.2 79.5 94.7l1 3c3.3 9.8 1.6 20.5-4.4 28.8S362.3 352 352 352H32c-10.3 0-19.9-4.9-26-13.3s-7.7-19.1-4.4-28.8l1-3c13.8-41.5 42.8-74.8 79.5-94.7L93.5 64H64c-17.7 0-32-14.3-32-32z"/><path fill="url(#b)" d="M160 384h64v96c0 17.7-14.3 32-32 32s-32-14.3-32-32v-96z"/><path stroke="#ffffff80" stroke-linecap="round" stroke-width="4" d="M120 40h160" transform="skewX(-10)"/></g><circle r="8" fill="#00000030" transform="matrix(1 0 0 .5 20 180)"/></g></svg>